name C:\Users\u0101727\Documents\MyRepositories\upper-imu-dc\Results\main_tracking\Case_41\FLX01_orientations_groundFrame.mot
datacolumns 13
datarows 14
range 5.01000000 5.14000000
endheader 
time	radius_imu_[0][0]	radius_imu_[0][1]	radius_imu_[0][2]	radius_imu_[1][0]	radius_imu_[1][1]	radius_imu_[1][2]	radius_imu_[2][0]	radius_imu_[2][1]	radius_imu_[2][2]	radius_imu_x	radius_imu_y	radius_imu_z	
          5.01000000	          0.24832759	         -0.89659406	          0.36667764	         -0.30527962	          0.28680805	          0.90804487	         -0.91931374	         -0.33743181	         -0.20248954	         -1.79020164	          0.37543540	          1.30060169	
          5.02000000	          0.24361114	         -0.89354666	          0.37713125	         -0.30025027	          0.30026240	          0.90536858	         -0.92222740	         -0.33379163	         -0.19514036	         -1.78308563	          0.38669686	          1.30463115	
          5.03000000	          0.24312754	         -0.88897683	          0.38808400	         -0.29510923	          0.31333260	          0.90262574	         -0.92401274	         -0.33398035	         -0.18616548	         -1.77419307	          0.39855174	          1.30383316	
          5.04000000	          0.24711862	         -0.88283768	          0.39941210	         -0.28984333	          0.32597747	          0.89984973	         -0.92462059	         -0.33813655	         -0.17532951	         -1.76322845	          0.41087549	          1.29786738	
          5.05000000	          0.25519439	         -0.87523110	          0.41090917	         -0.28448417	          0.33820199	          0.89704413	         -0.92409122	         -0.34581778	         -0.16268214	         -1.75020003	          0.42345109	          1.28708787	
          5.06000000	          0.23469552	         -0.87810418	          0.41695451	         -0.27904140	          0.35002338	          0.89421448	         -0.93115730	         -0.32621570	         -0.16287850	         -1.75096812	          0.43009209	          1.30962584	
          5.07000000	          0.27359629	         -0.85919559	          0.43235171	         -0.27354437	          0.36143569	          0.89136845	         -0.92212719	         -0.36214247	         -0.13614065	         -1.72235726	          0.44709922	          1.26251541	
          5.08000000	          0.27463790	         -0.85444700	          0.44101513	         -0.26803009	          0.37244430	          0.88850724	         -0.92343592	         -0.36222309	         -0.12673019	         -1.71247342	          0.45672942	          1.25980418	
          5.09000000	          0.27659196	         -0.84941957	          0.44942550	         -0.26253595	          0.38308929	          0.88561700	         -0.92443051	         -0.36294490	         -0.11704375	         -1.70219552	          0.46612213	          1.25599954	
          5.10000000	          0.27930909	         -0.84414686	          0.45760520	         -0.25710880	          0.39341975	          0.88267546	         -0.92513864	         -0.36419360	         -0.10715187	         -1.69159965	          0.47529998	          1.25125776	
          5.11000000	          0.25402454	         -0.84948968	          0.46242709	         -0.25175335	          0.40355618	          0.87963780	         -0.93385855	         -0.33986716	         -0.11134870	         -1.69671135	          0.48073060	          1.28022790	
          5.12000000	          0.29946655	         -0.82756371	          0.47482428	         -0.24643111	          0.41368837	          0.87643234	         -0.92173288	         -0.37947364	         -0.08005161	         -1.66188163	          0.49476436	          1.22359048	
          5.13000000	          0.29871313	         -0.82345838	          0.48237616	         -0.24121036	          0.42389712	          0.87299988	         -0.92335693	         -0.37713066	         -0.07200306	         -1.65308781	          0.50336532	          1.22280453	
          5.14000000	          0.30017070	         -0.81826424	          0.49024604	         -0.23608374	          0.43422811	          0.86931606	         -0.92420886	         -0.37668233	         -0.06283633	         -1.64295333	          0.51237202	          1.21920021	
